<svg xmlns="http://www.w3.org/2000/svg" viewBox="0 0 480 480"><path d="M440 0H40C17.9 0 0 17.9 0 40v248 32c0 22.1 17.9 40 40 40h134.4l-13.1 72h-31.4c-9.2 0-17.4 5.1-21.5 13.3 -3.7 7.5-3.4 16.2 1 23.4 4.4 7.1 12 11.4 20.4 11.4h220.2c8.4 0 16-4.3 20.4-11.4s4.8-15.9 1-23.4C367.5 437.1 359.3 432 350.1 432H318.7l-13.1-72H440c22.1 0 40-17.9 40-40v-32V40C480 17.9 462.1 0 440 0zM312 448h38.1c3 0 5.8 1.7 7.2 4.4 1.8 3.6 0.4 6.6-0.3 7.8 -0.7 1.1-2.8 3.8-6.8 3.8H129.9c-4 0-6.1-2.7-6.8-3.8 -0.7-1.1-2.2-4.2-0.3-7.8 1.4-2.7 4.1-4.4 7.2-4.4H168h64c4.4 0 8-3.6 8-8 0-4.4-3.6-8-8-8h-54.4l13.1-72h98.6l13.1 72H280c-4.4 0-8 3.6-8 8 0 4.4 3.6 8 8 8H312zM464 320c0 13.2-10.8 24-24 24H296 184 40c-13.2 0-24-10.8-24-24v-24h448V320zM464 280H16V40c0-13.2 10.8-24 24-24h400c13.2 0 24 10.8 24 24V280z"/><path d="M216 160h-80V80c0-4.4-3.6-8-8-8 -52.9 0-96 43.1-96 96 0 52.9 43.1 96 96 96 52.9 0 96-43.1 96-96C224 163.6 220.4 160 216 160zM128 248c-44.1 0-80-35.9-80-80 0-41.4 31.6-75.6 72-79.6V168c0 4.4 3.6 8 8 8h79.6C203.6 216.4 169.4 248 128 248z"/><path d="M160 40c-4.4 0-8 3.6-8 8v88c0 4.4 3.6 8 8 8h88c4.4 0 8-3.6 8-8C256 83.1 212.9 40 160 40zM168 128V56.4c37.7 3.8 67.8 33.9 71.6 71.6H168z"/><path d="M440 32H280c-4.4 0-8 3.6-8 8v216c0 4.4 3.6 8 8 8h160c4.4 0 8-3.6 8-8V40C448 35.6 444.4 32 440 32zM432 248H288V48h144V248z"/><path d="M360 72h-48c-4.4 0-8 3.6-8 8s3.6 8 8 8h48c4.4 0 8-3.6 8-8S364.4 72 360 72z"/><path d="M408 104h-96c-4.4 0-8 3.6-8 8s3.6 8 8 8h96c4.4 0 8-3.6 8-8S412.4 104 408 104z"/><path d="M360 136h-48c-4.4 0-8 3.6-8 8s3.6 8 8 8h48c4.4 0 8-3.6 8-8S364.4 136 360 136z"/><path d="M408 168h-96c-4.4 0-8 3.6-8 8s3.6 8 8 8h96c4.4 0 8-3.6 8-8S412.4 168 408 168z"/><path d="M360 200h-48c-4.4 0-8 3.6-8 8s3.6 8 8 8h48c4.4 0 8-3.6 8-8S364.4 200 360 200z"/><path d="M256 312h-32c-4.4 0-8 3.6-8 8 0 4.4 3.6 8 8 8h32c4.4 0 8-3.6 8-8C264 315.6 260.4 312 256 312z"/></svg>